Coordinates
version=1
nRows=13
nColumns=22
inDegrees=yes

Units are S.I. units (second, meters, Newtons, ...)
If the header above contains a line with 'inDegrees', this indicates whether rotational values are in degrees (yes) or radians (no).

endheader
time	pelvis_tilt	pelvis_list	pelvis_rotation	pelvis_tx	pelvis_ty	pelvis_tz	hip_flexion_r	hip_adduction_r	hip_rotation_r	knee_angle_r	ankle_angle_r	subtalar_angle_r	hip_flexion_l	hip_adduction_l	hip_rotation_l	knee_angle_l	ankle_angle_l	subtalar_angle_l	lumbar_extension	lumbar_bending	lumbar_rotation
      0.01000000	     -1.70151915	     -2.24152821	     -2.32012183	      0.09388710	      0.95768679	      1.19329087	      4.95998830	      1.94117806	     -5.17070492	    -13.84169204	     12.29664085	     -1.09266378	      2.97134322	     -3.44976560	     -7.41223063	    -12.77401763	     11.02207265	     -5.58482026	      0.95665899	      2.56961300	     -9.43791081
      0.02000000	     -1.68387811	     -2.21791428	     -2.29053707	      0.09387277	      0.95770966	      1.19328864	      4.97014557	      1.91194266	     -5.21164745	    -13.89371388	     12.32404718	     -1.10066327	      2.95844755	     -3.42128995	     -7.36252591	    -12.77224417	     10.98308391	     -5.63525711	      0.92843682	      2.53437476	     -9.49932454
      0.03000000	     -1.67447556	     -2.21761095	     -2.27516576	      0.09387115	      0.95772641	      1.19332566	      4.97588068	      1.91517953	     -5.19693203	    -13.92332178	     12.31848111	     -1.10146971	      2.95525939	     -3.42447606	     -7.35868349	    -12.77899294	     10.97896032	     -5.64262052	      0.91093718	      2.52685399	     -9.55195390
      0.04000000	     -1.66217766	     -2.21420697	     -2.25329233	      0.09387121	      0.95774384	      1.19336436	      4.97505655	      1.91399857	     -5.20530092	    -13.94695332	     12.32178876	     -1.10557893	      2.95572739	     -3.42496530	     -7.34085458	    -12.79734085	     10.97195065	     -5.65071105	      0.89198181	      2.51413645	     -9.63082643
      0.05000000	     -1.65297736	     -2.21394653	     -2.19667531	      0.09388522	      0.95775481	      1.19334684	      4.96557532	      1.91157535	     -5.26834595	    -13.95520390	     12.33314097	     -1.11673606	      2.96483317	     -3.42583399	     -7.28611611	    -12.81562564	     10.96478543	     -5.66446881	      0.88008398	      2.50082510	     -9.72360717
      0.06000000	     -1.64633897	     -2.21343041	     -2.17690820	      0.09388376	      0.95776228	      1.19337987	      4.96985743	      1.91324376	     -5.26551125	    -13.97951348	     12.32860648	     -1.11902089	      2.96639030	     -3.42914148	     -7.27838947	    -12.82369411	     10.96193177	     -5.66678217	      0.86849172	      2.49037706	     -9.78081430
      0.07000000	     -1.64671694	     -2.21529587	     -2.13016688	      0.09389802	      0.95775642	      1.19336962	      4.96677748	      1.91374328	     -5.32741768	    -13.97901308	     12.33774074	     -1.12844033	      2.98612907	     -3.43276387	     -7.22828277	    -12.84705113	     10.95873074	     -5.67255275	      0.87222105	      2.48049066	     -9.85887894
      0.08000000	     -1.64541847	     -2.21533191	     -2.11434036	      0.09389824	      0.95775330	      1.19340045	      4.97055668	      1.91599607	     -5.33236393	    -13.99157434	     12.33542442	     -1.13081347	      2.99306811	     -3.43587539	     -7.21707270	    -12.85662142	     10.95860115	     -5.67450467	      0.87054831	      2.47113399	     -9.90577291
      0.09000000	     -1.65021243	     -2.21665622	     -2.08146836	      0.09391017	      0.95773687	      1.19339970	      4.96898022	      1.91738604	     -5.36800147	    -13.98478908	     12.34387166	     -1.13664766	      3.01386887	     -3.43964625	     -7.18492898	    -12.87689479	     10.95954692	     -5.67704578	      0.87967916	      2.46263508	     -9.95492392
      0.10000000	     -1.64978372	     -2.21773402	     -2.07858410	      0.09392740	      0.95773104	      1.19344093	      4.96777306	      1.92176140	     -5.36877953	    -13.98714713	     12.34366861	     -1.13680595	      3.01348600	     -3.44279740	     -7.18351296	    -12.87764515	     10.95997194	     -5.67728459	      0.88265578	      2.45522251	     -9.95622283
      0.11000000	     -1.64966846	     -2.21834293	     -2.07475109	      0.09394795	      0.95772209	      1.19348119	      4.96569792	      1.92504936	     -5.36999597	    -13.98821845	     12.34420602	     -1.13720808	      3.01397849	     -3.44639299	     -7.18062606	    -12.87990654	     10.96077732	     -5.67761009	      0.88565126	      2.44838690	     -9.95770661
      0.12000000	     -1.65231261	     -2.22069504	     -2.05393550	      0.09395241	      0.95770431	      1.19348890	      4.95738578	      1.92957365	     -5.38477427	    -13.97137025	     12.35433044	     -1.14295467	      3.03207908	     -3.45047931	     -7.14774010	    -12.90418333	     10.97113029	     -5.68026637	      0.88823154	      2.44383071	     -9.95787238
      0.13000000	     -1.65286956	     -2.22020594	     -2.05429074	      0.09396871	      0.95769793	      1.19351336	      4.95660123	      1.93065673	     -5.38514159	    -13.97188047	     12.35430387	     -1.14305483	      3.03221069	     -3.45063561	     -7.14724245	    -12.90458205	     10.97130774	     -5.68030558	      0.88848116	      2.44346276	     -9.95788995
